<?xml version="1.0" encoding="UTF-8" standalone="no"?>
<svg
   id="Footer_Logo"
   data-name="Footer Logo"
   width="180.68858"
   height="180.69104"
   viewBox="0 0 180.68858 180.69104"
   version="1.1"
   sodipodi:docname="biomerieux.svg"
   inkscape:version="1.2 (dc2aedaf03, 2022-05-15)"
   xmlns:inkscape="http://www.inkscape.org/namespaces/inkscape"
   xmlns:sodipodi="http://sodipodi.sourceforge.net/DTD/sodipodi-0.dtd"
   xmlns="http://www.w3.org/2000/svg"
   xmlns:svg="http://www.w3.org/2000/svg">
  <sodipodi:namedview
     id="namedview39"
     pagecolor="#505050"
     bordercolor="#eeeeee"
     borderopacity="1"
     inkscape:showpageshadow="0"
     inkscape:pageopacity="0"
     inkscape:pagecheckerboard="0"
     inkscape:deskcolor="#505050"
     showgrid="false"
     inkscape:zoom="3.2173913"
     inkscape:cx="85.006757"
     inkscape:cy="89.358108"
     inkscape:window-width="1920"
     inkscape:window-height="1001"
     inkscape:window-x="-9"
     inkscape:window-y="-9"
     inkscape:window-maximized="1"
     inkscape:current-layer="Footer_Logo" />
  <defs
     id="defs21">
    <linearGradient
       id="linear-gradient"
       y1="736.50706"
       x2="224.66772"
       y2="736.50706"
       gradientUnits="userSpaceOnUse"
       gradientTransform="scale(1.810349,0.55237966)"
       x1="135.87545">
      <stop
         offset="0"
         stop-color="#ffdf00"
         id="stop2" />
      <stop
         offset="0.137"
         stop-color="#fbdd00"
         id="stop4" />
      <stop
         offset="0.25"
         stop-color="#f1da02"
         id="stop6" />
      <stop
         offset="0.353"
         stop-color="#e0d306"
         id="stop8" />
      <stop
         offset="0.452"
         stop-color="#c8cb0c"
         id="stop10" />
      <stop
         offset="0.547"
         stop-color="#a8bf12"
         id="stop12" />
      <stop
         offset="0.64"
         stop-color="#82b21b"
         id="stop14" />
      <stop
         offset="0.728"
         stop-color="#56a225"
         id="stop16" />
      <stop
         offset="0.79"
         stop-color="#32952d"
         id="stop18" />
    </linearGradient>
  </defs>
  <g
     id="Group_3750"
     data-name="Group 3750"
     transform="translate(-0.00120743,0.001)">
    <path
       id="Path_115"
       data-name="Path 115"
       d="M 314.941,100 A 90.4,90.4 0 0 0 226.61,209.37 H 403.273 A 90.4,90.4 0 0 0 314.941,100 Z"
       transform="translate(-224.596,-100.001)"
       fill="#003b7c" />
    <path
       id="Path_116"
       data-name="Path 116"
       d="m 245.982,382.308 a 90.376,90.376 0 0 0 160.745,0 z"
       transform="translate(-236.009,-250.665)"
       fill="url(#linear-gradient)"
       style="fill:url(#linear-gradient)" />
    <g
       id="Group_3348"
       data-name="Group 3348"
       transform="translate(11.217,70.461)">
      <path
         id="Path_117"
         data-name="Path 117"
         d="m 248.65,261.361 h 6.525 c 3,0 5.82,0.727 5.82,4.034 a 3.576,3.576 0 0 1 -3.108,3.748 v 0.044 c 1.984,0.353 3.549,1.389 3.549,3.99 0,3.285 -2.887,4.5 -5.93,4.5 h -6.856 z m 6.172,6.723 c 1.874,0 2.734,-0.706 2.734,-1.962 0,-1.278 -0.772,-1.984 -2.69,-1.984 h -2.689 v 3.946 z m 0.243,6.855 c 1.984,0 2.865,-0.794 2.865,-2.182 0,-1.433 -1.036,-2.138 -3.02,-2.138 h -2.734 v 4.32 z"
         transform="translate(-248.65,-256.578)"
         fill="#ffffff" />
      <path
         id="Path_118"
         data-name="Path 118"
         d="m 287.458,261.361 h 3.571 v 16.312 h -3.571 z"
         transform="translate(-269.361,-256.578)"
         fill="#ffffff" />
      <path
         id="Path_119"
         data-name="Path 119"
         d="m 305.75,269.164 c 0,-5.731 3.747,-8.465 7.693,-8.465 3.924,0 7.671,2.734 7.671,8.465 0,5.731 -3.747,8.464 -7.671,8.464 -3.943,0 -7.693,-2.728 -7.693,-8.464 z m 11.793,0 c 0,-3.417 -1.587,-5.488 -4.1,-5.488 -2.535,0 -4.1,2.072 -4.1,5.488 0,3.416 1.565,5.577 4.1,5.577 2.513,0 4.1,-2.161 4.1,-5.577 z"
         transform="translate(-279.124,-256.224)"
         fill="#ffffff" />
      <path
         id="Path_120"
         data-name="Path 120"
         d="m 349,261.361 h 4.739 l 3.637,11.992 h 0.044 l 3.394,-11.992 h 4.85 v 16.312 H 362.2 v -11.132 h -0.044 a 29.225,29.225 0 0 1 -0.9,3.637 l -2.447,7.495 h -3.175 l -2.424,-7.495 a 28.887,28.887 0 0 1 -0.948,-3.814 h -0.044 v 11.309 H 349 Z"
         transform="translate(-302.206,-256.578)"
         fill="#ffffff" />
      <path
         id="Path_121"
         data-name="Path 121"
         d="m 396.647,255.886 h 11.11 v 3 h -7.517 v 3.5 h 5.445 v 2.843 h -5.445 v 4.056 h 7.913 v 2.91 h -11.506 z m 5.577,-4.783 h 3.576 l -3.284,3.814 h -2.337 z"
         transform="translate(-327.634,-251.103)"
         fill="#ffffff" />
      <path
         id="Path_122"
         data-name="Path 122"
         d="m 431.3,261.361 h 6.128 c 4.012,0 6.415,1.433 6.415,5.048 a 4.358,4.358 0 0 1 -3.395,4.651 l 3.637,6.613 h -3.795 l -3.395,-6.15 h -2.072 v 6.15 H 431.3 Z m 5.973,7.384 c 2.072,0 3.064,-0.6 3.064,-2.249 0,-1.609 -0.992,-2.2 -3.064,-2.2 h -2.447 v 4.453 z"
         transform="translate(-346.126,-256.578)"
         fill="#ffffff" />
      <path
         id="Path_123"
         data-name="Path 123"
         d="m 469.725,261.361 h 3.575 v 16.312 h -3.571 z"
         transform="translate(-366.635,-256.578)"
         fill="#ffffff" />
      <path
         id="Path_124"
         data-name="Path 124"
         d="m 489.671,261.361 h 11.11 v 3 h -7.517 v 3.5 h 5.445 v 2.844 h -5.445 v 4.056 h 7.914 v 2.91 h -11.507 z"
         transform="translate(-377.28,-256.578)"
         fill="#ffffff" />
      <path
         id="Path_125"
         data-name="Path 125"
         d="m 523.278,271.435 v -10.074 h 3.593 v 9.986 c 0,2.359 0.9,3.681 3.043,3.681 2.116,0 3,-1.3 3,-3.681 v -9.986 h 3.527 v 10.052 c 0,4.012 -2.029,6.525 -6.57,6.525 -4.541,0 -6.593,-2.514 -6.593,-6.503 z"
         transform="translate(-395.216,-256.578)"
         fill="#ffffff" />
      <path
         id="Path_126"
         data-name="Path 126"
         d="m 565.513,269.054 -4.761,-7.693 h 4.1 l 2.91,4.893 2.755,-4.893 h 3.7 l -4.651,7.715 5.291,8.6 h -3.991 l -3.46,-5.709 -3.351,5.709 h -3.769 z"
         transform="translate(-414.968,-256.578)"
         fill="#ffffff" />
    </g>
  </g>
</svg>
