<?xml version="1.0" encoding="UTF-8" standalone="no"?>
<svg
   xmlns:dc="http://purl.org/dc/elements/1.1/"
   xmlns:cc="http://creativecommons.org/ns#"
   xmlns:rdf="http://www.w3.org/1999/02/22-rdf-syntax-ns#"
   xmlns:svg="http://www.w3.org/2000/svg"
   xmlns="http://www.w3.org/2000/svg"
   xmlns:sodipodi="http://sodipodi.sourceforge.net/DTD/sodipodi-0.dtd"
   xmlns:inkscape="http://www.inkscape.org/namespaces/inkscape"
   viewBox="0 0 100 33"
   version="1.1"
   id="svg34"
   sodipodi:docname="Parmalat logo.svg"
   width="100"
   height="33"
   inkscape:version="0.92.4 (5da689c313, 2019-01-14)">
  <title
     id="title38">Lactalis logo</title>
  <metadata
     id="metadata38">
    <rdf:RDF>
      <cc:Work
         rdf:about="">
        <dc:format>image/svg+xml</dc:format>
        <dc:type
           rdf:resource="http://purl.org/dc/dcmitype/StillImage" />
        <dc:title>Lactalis logo</dc:title>
        <cc:license
           rdf:resource="http://scripts.sil.org/OFL" />
        <dc:date>20 enero 2020</dc:date>
        <dc:creator>
          <cc:Agent>
            <dc:title>EEIM</dc:title>
          </cc:Agent>
        </dc:creator>
      </cc:Work>
      <cc:License
         rdf:about="http://scripts.sil.org/OFL">
        <cc:permits
           rdf:resource="http://scripts.sil.org/pub/OFL/Reproduction" />
        <cc:permits
           rdf:resource="http://scripts.sil.org/pub/OFL/Distribution" />
        <cc:permits
           rdf:resource="http://scripts.sil.org/pub/OFL/Embedding" />
        <cc:permits
           rdf:resource="http://scripts.sil.org/pub/OFL/DerivativeWorks" />
        <cc:requires
           rdf:resource="http://scripts.sil.org/pub/OFL/Notice" />
        <cc:requires
           rdf:resource="http://scripts.sil.org/pub/OFL/Attribution" />
        <cc:requires
           rdf:resource="http://scripts.sil.org/pub/OFL/ShareAlike" />
        <cc:requires
           rdf:resource="http://scripts.sil.org/pub/OFL/DerivativeRenaming" />
        <cc:requires
           rdf:resource="http://scripts.sil.org/pub/OFL/BundlingWhenSelling" />
      </cc:License>
    </rdf:RDF>
  </metadata>
  <sodipodi:namedview
     pagecolor="#ffffff"
     bordercolor="#666666"
     borderopacity="1"
     objecttolerance="10"
     gridtolerance="10"
     guidetolerance="10"
     inkscape:pageopacity="0"
     inkscape:pageshadow="2"
     inkscape:window-width="1366"
     inkscape:window-height="705"
     id="namedview36"
     showgrid="false"
     inkscape:showpageshadow="false"
     inkscape:zoom="1"
     inkscape:cx="55.867191"
     inkscape:cy="22.855014"
     inkscape:window-x="-8"
     inkscape:window-y="-8"
     inkscape:window-maximized="1"
     inkscape:current-layer="svg34"
     showguides="false" />
  <defs
     id="defs4">
    <style
       id="style2">.cls-1{fill:#eb2227;}</style>
  </defs>
  <g
     id="g3239"
     transform="matrix(0.13310254,0,0,0.13310254,-1.9568019,-55.005119)">
    <path
       inkscape:connector-curvature="0"
       style="fill:#003a80;fill-opacity:1;fill-rule:evenodd;stroke:none"
       d="m 229.23047,46.283203 c -5.74604,0 -13.08594,4.291663 -13.08594,14.146485 0,3.956688 1.17193,7.465806 3.75977,10.154296 1.38227,1.45609 4.07662,3.658204 9.21875,3.658204 4.89387,0 8.26313,-1.679671 10.17773,-2.650391 V 60.056641 h -9.60937 v 3.660156 h 4.67968 v 6.082031 c -1.16978,0.48536 -2.44448,1.009766 -4.36132,1.009766 -5.85116,0 -8.47461,-5.974812 -8.47461,-10.826172 0,-6.15983 3.89957,-10.189453 9.11328,-10.189453 1.59476,0 2.87255,0.372489 4.07812,1.193359 1.45385,0.93269 1.95067,1.830943 2.33985,2.501953 l 1.38476,-0.560547 c -0.21248,-0.89691 -0.53346,-2.314483 -1.91797,-3.808593 -1.87881,-2.05103 -4.60752,-2.835938 -7.30273,-2.835938 z m 120.20312,0.002 c -9.32473,0 -12.23437,7.650653 -12.23437,14.257813 0,6.1218 2.90999,13.699219 12.20117,13.699219 9.71616,0 12.44531,-8.025187 12.44531,-14.035157 0,-5.74828 -2.51702,-13.886085 -12.41211,-13.921875 z m 170.38868,0.78125 v 26.390625 h 17.16406 V 69.875 h -12.0918 v -8.25 h 9.28906 v -3.621094 h -9.28906 v -7.314453 h 10.60156 v -3.623047 z m -56.11915,0.002 v 26.390625 h 5.07032 V 61.736328 C 469.59206,61.850398 470.51306,62 471.50391,62 c 5.42619,0 9.85937,-2.950984 9.85937,-7.990234 0,-2.72428 -1.52448,-6.941407 -8.15625,-6.941407 z m -183.94531,0.03711 v 26.351562 h 5.07031 V 61.810547 c 1.41805,0.29971 1.702,0.300781 2.94336,0.300781 l 6.38282,11.345703 h 5.67578 l -6.98633,-12.503906 c 1.02887,-0.55917 2.19768,-1.196171 3.22656,-2.837891 0.9573,-1.52989 1.13477,-3.02342 1.13477,-3.99414 0,-1.86763 -0.67559,-4.253815 -2.69531,-5.671875 -1.45385,-1.00874 -3.19187,-1.34375 -5.85352,-1.34375 z m 121.72852,0 v 16.347656 c 0,4.81558 0.74216,6.869999 2.26758,8.511719 1.45384,1.5299 3.47702,2.316406 6.13867,2.316406 0.88573,0 2.906,-0.150281 4.67969,-1.306641 1.10045,-0.70903 1.84502,-1.644514 2.58984,-2.615234 v 3.097656 h 5.0332 V 47.105469 h -5.0332 v 20.714843 c -0.81639,0.896911 -2.73454,2.951172 -5.67578,2.951172 -1.9146,0 -3.43947,-0.93447 -4.25586,-2.83789 -0.28406,-0.671 -0.63672,-1.791828 -0.63672,-4.142578 V 47.105469 Z M 349.4707,49.79111 c 3.68829,-0.038 6.94922,2.764846 6.94922,10.566406 0,1.78934 1.6e-4,10.376953 -6.94922,10.376953 -6.73689,0 -6.77539,-8.88423 -6.77539,-10.9375 0,-5.86011 2.34228,-9.967829 6.77539,-10.005859 z m 120.70118,0.882812 c 1.28748,0.0032 2.26524,0.07975 3.14257,0.386719 1.77369,0.63745 2.72852,2.128872 2.72852,4.070312 0,1.79158 -0.92197,3.248532 -2.80078,4.107422 -1.59476,0.74482 -3.04846,0.78125 -4.46875,0.78125 v -9.330078 c 0.50605,-0.0095 0.96927,-0.01668 1.39844,-0.01563 z m -183.25,0.05273 c 0.99308,0 2.16252,0.07272 3.1914,0.669922 1.77145,1.00875 1.87891,2.947732 1.87891,3.544922 0,2.54088 -1.70332,3.84484 -2.98047,4.40625 -1.38227,0.59719 -2.79908,0.598689 -4.1836,0.636719 v -9.222656 c 0.63969,0 1.41828,-0.03516 2.09376,-0.03516 z M 589.9082,92.447266 c -6.34324,0 -11.48437,3.952156 -11.48437,8.828124 0,4.87821 5.14113,8.82813 11.48437,8.82813 6.34323,0 11.48633,-3.94992 11.48633,-8.82813 0,-4.875968 -5.1431,-8.828124 -11.48633,-8.828124 z M 278,95.853516 c -35.04462,0.497777 -49.22942,20.144664 -49.53711,34.820314 -0.47194,22.54129 20.36967,35.86409 47.32617,36.42773 32.56164,0.67995 41.64501,-14.65442 42.91992,-16.65625 0,0 -3.88334,-1.32226 -5.68164,-1.73828 -2.63034,2.52298 -11.53636,10.46224 -28.95117,10.09766 -24.2121,-0.50549 -34.64678,-15.04459 -34.36719,-28.4043 0.27064,-12.9996 12.90764,-26.63714 35.86719,-26.15625 17.89123,0.37576 25.74947,6.92362 29.03516,9.49805 l 4.61133,-3.58789 C 309.02114,99.053634 291.47737,96.075484 281.45703,95.865234 280.28291,95.840631 279.13047,95.837458 278,95.853516 Z m 378.95703,0.07227 c -19.16701,0.189549 -35.69531,7.138354 -35.69531,20.560544 0,27.21149 53.3418,13.45894 53.3418,31.3457 0,8.00956 -10.89612,11.62104 -23.85547,11.23633 -14.64804,-0.43615 -25.83377,-6.48407 -27.45313,-13.23437 -1.57686,-0.24603 -5.66291,-0.12753 -6.64258,-0.12305 -0.0156,8.66267 9.42247,20.37735 36.34766,21.42187 31.70946,1.23017 42.26367,-11.79237 42.26367,-20.60937 0,-28.84203 -54.36915,-15.86458 -53.81445,-31.72266 0.26393,-7.51078 9.33738,-11.02477 23.88476,-10.50586 8.96016,0.31984 17.49302,2.80621 23.54102,7.69336 l 3.95898,-4.09375 c -5.01912,-5.51119 -16.01047,-11.329999 -32.01171,-11.916009 -1.29714,-0.04753 -2.58744,-0.06537 -3.86524,-0.05273 z M 60.662109,97.960938 V 165.2207 l 48.031251,-0.01 c 8.83713,0.0671 15.65646,-4.58645 17.88867,-9.41992 l -45.484374,-0.002 V 97.960938 Z m 115.816411,0 -47.8711,67.259762 5.95117,-0.01 c 9.95324,-0.20354 15.01811,-4.81434 17.09375,-7.89649 l 4.67578,-6.95703 h 41.72852 l 4.53125,6.73438 c 4.34364,6.6094 12.58563,8.11914 17.13281,8.11914 l 10.06055,0.01 -46.29883,-67.259762 z m 147.54296,0 v 9.242182 h 27.61329 v 58.01758 h 20.4375 v -58.01758 l 12.23632,-0.01 c 8.81701,0.2013 16.09902,-5.23994 17.62891,-9.232422 z m 113.45704,0 -47.8711,67.259762 5.95117,-0.01 c 9.95324,-0.20354 15.01784,-4.81434 17.09571,-7.89649 l 4.67773,-6.95703 h 41.72656 l 4.53125,6.73438 c 4.34141,6.6094 12.58368,8.11914 17.13086,8.11914 l 10.0625,0.01 -46.30078,-67.259762 z m 64.88671,0 V 165.2207 l 48.03125,-0.01 c 8.83713,0.0671 15.65423,-4.58645 17.88868,-9.41992 l -45.48438,-0.002 V 97.960938 Z m 97.77539,15.394532 -20.44335,0.11523 0.004,51.74024 h 20.4375 z m -423.23242,6.32617 15.00391,21.81641 h -29.58008 z m 261.00196,0 15.0039,21.81641 h -29.58203 z"
       transform="translate(11.96875,413.19652)"
       id="path3075" />
    <path
       inkscape:connector-curvature="0"
       style="fill:#84d0f0;fill-opacity:1;fill-rule:evenodd;stroke:none"
       d="M 357.60352,6.1269531 C 161.81349,5.3558929 6.1191406,53.541202 6.1191406,116.36719 c 0,22.67773 17.8964844,34.2668 17.8964844,17.60351 0,-60.647667 147.976995,-118.496928 360.808595,-114.238278 98.25973,1.96604 178.41872,9.92852 237.97266,24.25 13.22327,3.18056 16.57547,2.078194 4.54882,-1.666016 C 561.37026,21.783656 473.3458,8.2901988 376.67188,6.3554688 370.2765,6.2275584 363.91932,6.151826 357.60352,6.1269531 Z M 737.20508,108.41016 c -2.40269,0.21314 -4.15039,2.66186 -4.15039,7.86914 0,60.64767 -147.97895,118.49693 -360.81055,114.23828 -98.25974,-1.96604 -178.41677,-9.92824 -237.9707,-24.25196 -13.22327,-3.17831 -16.57547,-2.07624 -4.54883,1.66797 65.97769,20.53275 154.00214,34.02426 250.67383,35.95899 204.65205,4.09313 370.55078,-45.15937 370.55078,-110.00977 0,-15.59094 -8.45823,-25.94157 -13.74414,-25.47265 z"
       transform="translate(11.96875,413.19652)"
       id="path3099" />
  </g>
</svg>
