<?xml version="1.0" encoding="UTF-8" standalone="no"?>
<!-- Created with Inkscape (http://www.inkscape.org/) -->

<svg
   xmlns:dc="http://purl.org/dc/elements/1.1/"
   xmlns:cc="http://creativecommons.org/ns#"
   xmlns:rdf="http://www.w3.org/1999/02/22-rdf-syntax-ns#"
   xmlns:svg="http://www.w3.org/2000/svg"
   xmlns="http://www.w3.org/2000/svg"
   xmlns:sodipodi="http://sodipodi.sourceforge.net/DTD/sodipodi-0.dtd"
   xmlns:inkscape="http://www.inkscape.org/namespaces/inkscape"
   width="424.89999"
   height="425"
   viewBox="0 0 112.42145 112.44791"
   version="1.1"
   id="svg8"
   inkscape:version="0.92.0 r15299"
   sodipodi:docname="nexity.svg">
  <defs
     id="defs2" />
  <sodipodi:namedview
     id="base"
     pagecolor="#ffffff"
     bordercolor="#666666"
     borderopacity="1.0"
     inkscape:pageopacity="0.0"
     inkscape:pageshadow="2"
     inkscape:zoom="1.2600473"
     inkscape:cx="211.45"
     inkscape:cy="211.5"
     inkscape:document-units="mm"
     inkscape:current-layer="layer1"
     showgrid="false"
     fit-margin-top="0"
     fit-margin-left="0"
     fit-margin-right="0"
     fit-margin-bottom="0"
     units="px"
     inkscape:window-width="1280"
     inkscape:window-height="744"
     inkscape:window-x="-4"
     inkscape:window-y="-4"
     inkscape:window-maximized="1" />
  <metadata
     id="metadata5">
    <rdf:RDF>
      <cc:Work
         rdf:about="">
        <dc:format>image/svg+xml</dc:format>
        <dc:type
           rdf:resource="http://purl.org/dc/dcmitype/StillImage" />
        <dc:title></dc:title>
      </cc:Work>
    </rdf:RDF>
  </metadata>
  <g
     inkscape:label="Layer 1"
     inkscape:groupmode="layer"
     id="layer1"
     transform="translate(42.339003,-288.89242)">
    <g
       id="g24"
       transform="matrix(0.26458333,0,0,0.26458333,-20.16692,233.67388)">
      <path
         id="path10"
         d="m 137.6,632.7 c 140.8,0 202.5,-90.6 202.5,-204 v -14.5 c 0,-119.4 -61.7,-204.5 -202.5,-204.5 h -17.9 c -140.8,0 -202.5,84.6 -202.5,204.5 v 14.5 c 0,113.4 61.7,204 202.5,204 z"
         inkscape:connector-curvature="0"
         style="fill:#d22238" />
      <polygon
         id="polygon12"
         points="94.8,380.4 122.2,418.6 93.8,456.5 102.7,456.5 109.6,456.5 129.6,429.1 149.5,456.5 156,456.5 164.9,456.5 136.5,418.6 163.9,380.4 148.5,380.4 129.6,407.3 110.2,380.4 "
         style="fill:#ffffff" />
      <path
         id="path14"
         d="m 72.8,423.1 c 10.9,-1.9 16.4,-7.9 19,-12.4 1.9,-4 2.5,-7.5 2.5,-9 0,-0.4 0,-0.4 0,-1 0,-7 -4,-13 -10.5,-17.5 -6,-4 -13.9,-6 -22.4,-6 -8.5,0 -16,1.9 -22.4,6 -7,4.5 -10.5,12.4 -10.5,19 v 31.4 c 0,7 4,13.9 10.5,18.4 6,4 13.9,6 22.4,6 8.5,0 16,-1.9 22.4,-6 4.5,-3 7.9,-6.4 9.4,-10.9 l 1.5,-4.5 -13,0.4 -1,1.9 c -0.4,1.5 -1.9,2.5 -4,4 -4,2.5 -9.4,4 -14.9,4 -6,0 -11.5,-1.5 -14.9,-4 -1.5,-1 -3,-2.5 -4,-3.4 -1,-1.9 -1,-4.5 -1,-5.5 v -7.9 c -0.9,0 13,-0.4 30.9,-3 z M 41,416.7 v -13 c 0,-1.5 0.4,-5.5 1.5,-7.5 1,-1.5 1.9,-3 3.4,-4 4,-2.5 9.4,-4 14.9,-4 6,0 11.5,1.5 14.9,4 1.5,1 3,2.5 3.4,3.4 0,0 3.4,5.5 0,12.4 -0.4,1.5 -1.5,2.5 -3,3.4 -2.5,1.5 -6.4,1.9 -6.4,1.9 -12.2,2.4 -28.7,3.4 -28.7,3.4 z"
         inkscape:connector-curvature="0"
         style="fill:#ffffff" />
      <path
         id="path16"
         d="m 8.1,383.8 c -6,-4 -13.9,-6 -22.4,-6 -22.4,0 -32.9,9.4 -32.9,9.4 v 47.2 21.8 h 13 V 394 c 7.5,-5.5 19.9,-4.9 19.9,-4.9 6,0 11.5,1.5 14.9,4 1.5,1 2.5,2.5 3.4,4 0.9,1.5 1.5,4.5 1.5,6 V 456 h 13 v -21.8 -31.8 c 0.1,-6.6 -3.3,-14.1 -10.4,-18.6 z"
         inkscape:connector-curvature="0"
         style="fill:#ffffff" />
      <path
         id="path18"
         d="m 231.1,383.4 h -16 v 0 -20.9 l -10.5,4.5 c 0,0 -2.5,1 -2.5,3.4 v 17.9 68.2 h 3.4 9.4 v -62.2 h 16 v -10.9 z"
         inkscape:connector-curvature="0"
         style="fill:#ffffff" />
      <path
         id="path20"
         d="m 184.4,390.8 v 0 -12.4 l -10.5,4.5 c 0,0 -2.5,1 -2.5,3.4 v 9.4 60.7 h 3.4 9.4 v -54.7 -10.9 z"
         inkscape:connector-curvature="0"
         style="fill:#ffffff" />
      <path
         id="path22"
         d="m 258.9,419.7 c -3,0 -5.5,-0.4 -6.4,-1 -1.9,-1 -2.5,-1.9 -3,-3 0,-0.4 -0.4,-1 -0.4,-1.5 v -0.4 -30.3 h -10.9 v 0 30.8 c 0,0.4 0,4.5 3,8.5 1.5,1.9 4,4 7,5.5 3,1.5 6.4,1.9 10.9,1.9 v 0 c 0,0 9,0.4 29.3,-4 v 11.5 0 0 c 0,0.4 0,2.5 -1.9,4.5 -1,1 -2.5,1.9 -5.5,3 -2.5,1 -6.4,1.5 -12,1.5 -8.5,0 -14.5,-1.5 -18.4,-2.5 -1.9,-0.4 -3,-1 -4,-1.5 -0.4,0 -0.4,-0.4 -1,-0.4 v 0 0 l -1,1.9 -4.9,7 c 1,0.4 9.4,6.4 28.8,6.4 v 0 c 6.4,0 11.5,-1 15.4,-2.5 6,-1.9 10.5,-6 12.4,-9.4 1.9,-3.4 2.5,-7 2.5,-8.5 v -0.4 -57.2 h -10.9 v 35.9 c -0.1,0.8 -12.5,4.2 -29,4.2 z"
         inkscape:connector-curvature="0"
         style="fill:#ffffff" />
    </g>
  </g>
</svg>
