<svg viewBox="0 0 160 27" fill="none" aria-label="Solvay" xmlns="http://www.w3.org/2000/svg"><g class="logo-fill" fill="#0096FF" style="--darkreader-inline-fill:var(--darkreader-background-0096ff, #0078cc)"><path d="M97.927 23.279c-1.177 2.87-2.714 3.384-4.763 3.384-2.05 0-3.586-.513-4.764-3.384L78.82.513h6.248l5.276 13.18c1.279 3.178 2.255 5.847 2.868 7.846a143.595 143.595 0 0 1 2.868-7.846l5.276-13.18h6.147l-9.58 22.766h.004ZM124.609 3.384C123.379.513 121.895 0 119.846 0s-3.485.46-4.764 3.384l-9.834 22.766h6.095l1.843-4.616h13.267l1.843 4.616h6.147l-9.834-22.766Zm-9.475 13.333 1.743-4.256c1.279-3.13 2.307-5.742 2.973-7.692.665 1.95 1.69 4.615 2.92 7.692l1.742 4.256h-9.378ZM148.17 22.766v3.384h-5.889v-3.384c0-2.463.101-2.976-1.13-4.975L130.446.513h6.66l6.094 10.155c.973 1.591 1.59 2.666 2.15 3.897.513-1.231 1.126-2.257 2.102-3.897L153.599.513H160l-10.705 17.282c-1.23 2-1.125 2.512-1.125 4.975M54.708 13.228c0 8.565-5.175 13.435-13.985 13.435-8.35 0-13.726-4.462-13.726-13.382S32.68 0 40.977 0c8.298 0 13.727 4.769 13.727 13.228m-5.994.101c0-5.64-3.021-8.41-7.938-8.41s-7.785 2.822-7.785 8.257c0 5.948 3.174 8.564 8.043 8.564 4.868 0 7.684-3.077 7.684-8.41M80.575 21.232v4.922h-13.88c-4.199 0-6.558-2.205-6.558-6V.513h5.84v20.719h14.598ZM11.217 26.667c-4.505 0-7.425-.36-10.652-1.026v-4.975c2.767.666 5.429 1.18 10.652 1.18 4.51 0 5.841-.974 5.841-2.77 0-1.693-1.23-2.565-6.095-3.385C2.303 14.205 0 11.742 0 7.588 0 2.564 4.046 0 11.27 0c2.969 0 6.607.307 9.934 1.078v4.975c-3.84-.872-6.966-1.232-9.938-1.232-3.792 0-5.276.618-5.276 2.411 0 1.538 1.024 2.463 6.554 3.489 8.657 1.59 10.5 4.102 10.5 7.947 0 4.461-3.433 7.999-11.83 7.999"/></g></svg>