<?xml version="1.0" encoding="UTF-8" standalone="no"?>
<!-- Created with Inkscape (http://www.inkscape.org/) -->

<svg
   xmlns:dc="http://purl.org/dc/elements/1.1/"
   xmlns:cc="http://creativecommons.org/ns#"
   xmlns:rdf="http://www.w3.org/1999/02/22-rdf-syntax-ns#"
   xmlns:svg="http://www.w3.org/2000/svg"
   xmlns="http://www.w3.org/2000/svg"
   xmlns:sodipodi="http://sodipodi.sourceforge.net/DTD/sodipodi-0.dtd"
   xmlns:inkscape="http://www.inkscape.org/namespaces/inkscape"
   width="151.61"
   height="40.03265"
   viewBox="0 0 40.113479 10.591972"
   version="1.1"
   id="svg323"
   inkscape:version="0.92.0 r15299"
   sodipodi:docname="vinci airports.svg">
  <defs
     id="defs317">
    <clipPath
       id="clipPath116"
       clipPathUnits="userSpaceOnUse">
      <path
         inkscape:connector-curvature="0"
         id="path114"
         d="M 0,0 H 510.236 V 680.315 H 0 Z" />
    </clipPath>
    <clipPath
       id="clipPath88"
       clipPathUnits="userSpaceOnUse">
      <path
         inkscape:connector-curvature="0"
         id="path86"
         d="M 0,0 H 510.236 V 680.315 H 0 Z" />
    </clipPath>
    <clipPath
       id="clipPath58"
       clipPathUnits="userSpaceOnUse">
      <path
         inkscape:connector-curvature="0"
         id="path56"
         d="M 0,0 H 510.236 V 680.315 H 0 Z" />
    </clipPath>
    <clipPath
       id="clipPath42"
       clipPathUnits="userSpaceOnUse">
      <path
         inkscape:connector-curvature="0"
         id="path40"
         d="M 0,0 H 510.236 V 680.315 H 0 Z" />
    </clipPath>
  </defs>
  <sodipodi:namedview
     id="base"
     pagecolor="#ffffff"
     bordercolor="#666666"
     borderopacity="1.0"
     inkscape:pageopacity="0.0"
     inkscape:pageshadow="2"
     inkscape:zoom="5.3250117"
     inkscape:cx="75.305"
     inkscape:cy="19.516326"
     inkscape:document-units="mm"
     inkscape:current-layer="layer1"
     showgrid="false"
     fit-margin-top="0"
     fit-margin-left="0"
     fit-margin-right="0"
     fit-margin-bottom="0"
     units="px"
     inkscape:window-width="1280"
     inkscape:window-height="744"
     inkscape:window-x="-4"
     inkscape:window-y="-4"
     inkscape:window-maximized="1" />
  <metadata
     id="metadata320">
    <rdf:RDF>
      <cc:Work
         rdf:about="">
        <dc:format>image/svg+xml</dc:format>
        <dc:type
           rdf:resource="http://purl.org/dc/dcmitype/StillImage" />
        <dc:title></dc:title>
      </cc:Work>
    </rdf:RDF>
  </metadata>
  <g
     inkscape:label="Layer 1"
     inkscape:groupmode="layer"
     id="layer1"
     transform="translate(-91.956504,-188.7622)">
    <g
       id="g490"
       transform="translate(0.13229143,-0.13228905)">
      <g
         transform="matrix(0.35277777,0,0,-0.35277777,109.60234,192.84842)"
         id="g44">
        <path
           inkscape:connector-curvature="0"
           id="path46"
           style="fill:#19276a;fill-opacity:1;fill-rule:nonzero;stroke:none"
           d="m 0,0 v -9.155 c 0,0 3.334,-0.826 8.551,-0.826 5.184,0 8.544,0.82 8.544,0.82 v 3.111 c 0,0 -3.611,-0.709 -8.577,-0.709 -2.408,0 -4.012,0.285 -4.864,0.369 v 3.619 c 0.961,0.098 2.575,0.371 4.897,0.371 4.838,-0.015 8.544,-0.733 8.544,-0.733 V 0 c 0,0 -3.311,0.828 -8.544,0.828 C 3.285,0.828 0,0 0,0" />
      </g>
      <path
         inkscape:connector-curvature="0"
         id="path48"
         style="fill:#19276a;fill-opacity:1;fill-rule:nonzero;stroke:none;stroke-width:0.35277778"
         d="m 117.06775,196.2968 h 1.32221 v -3.67912 h -1.32221 z" />
      <path
         inkscape:connector-curvature="0"
         id="path50"
         style="fill:#19276a;fill-opacity:1;fill-rule:nonzero;stroke:none;stroke-width:0.35277778"
         d="m 99.393586,196.2968 h 1.322214 v -3.67912 h -1.322214 z" />
      <g
         transform="matrix(0.35277777,0,0,-0.35277777,106.86098,196.29665)"
         id="g60">
        <path
           inkscape:connector-curvature="0"
           id="path62"
           style="fill:#19276a;fill-opacity:1;fill-rule:nonzero;stroke:none"
           d="M 0,0 C 0,0 -2.702,2.185 -6.686,4.251 -7.798,4.827 -8.737,5.208 -9.607,5.563 L -9.604,0 h -3.63 v 10.411 c 0,0 3.075,-0.6 6.554,-2.401 3.985,-2.065 6.689,-4.069 6.689,-4.069 v 6.488 H 3.638 V 0 Z" />
      </g>
      <g
         transform="matrix(0.35277777,0,0,-0.35277777,98.511821,193.451)"
         id="g64">
        <path
           inkscape:connector-curvature="0"
           id="path66"
           style="fill:#19276a;fill-opacity:1;fill-rule:nonzero;stroke:none"
           d="m 0,0 -9.289,-8.352 -9.293,8.354 2.781,2.534 c 0,0 5.671,-5.472 6.512,-6.249 0.838,0.777 6.517,6.249 6.517,6.249 z" />
      </g>
      <g
         transform="matrix(0.35277777,0,0,-0.35277777,121.36773,192.62088)"
         id="g68">
        <path
           inkscape:connector-curvature="0"
           id="path70"
           style="fill:#e3001b;fill-opacity:1;fill-rule:nonzero;stroke:none"
           d="m 0,0 h 5.213 c 1.909,0 3.099,0.976 3.537,1.436 0.45,0.459 1.467,1.616 1.467,2.96 V 8.73 c 0,0.801 0.651,1.458 1.454,1.458 h 5.647 c 0.805,0 1.454,-0.657 1.454,-1.458 V 3.075 c 0,-0.797 -0.649,-1.45 -1.454,-1.45 H 12.991 C 11.642,1.625 10.486,0.598 10.028,0.158 9.561,-0.278 8.602,-1.478 8.595,-3.381 V -8.59 H 0 Z" />
      </g>
      <g
         transform="matrix(0.35277777,0,0,-0.35277777,131.8054,194.23279)"
         id="g72">
        <path
           inkscape:connector-curvature="0"
           id="path74"
           style="fill:#e3001b;fill-opacity:1;fill-rule:nonzero;stroke:none"
           d="m 0,0 c 0,1.384 -0.55,2.613 -1.449,3.517 -0.877,0.895 -2.13,1.445 -3.514,1.445 -2.826,0 -5.073,-2.296 -5.073,-5.048 0,-0.499 0.221,-1.445 0.221,-1.856 0,-2.157 -1.753,-3.908 -3.918,-3.908 h -4.184 c -0.802,0 -1.453,-0.653 -1.453,-1.455 v -5.653 c 0,-0.801 0.651,-1.454 1.453,-1.454 h 5.648 c 0.805,0 1.454,0.653 1.454,1.454 v 4.189 c 0,2.161 1.756,3.916 3.914,3.916 0.402,0 1.352,-0.219 1.854,-0.219 C -2.302,-5.072 0,-2.821 0,0" />
      </g>
      <g
         transform="matrix(0.35277777,0,0,-0.35277777,110.01178,199.32951)"
         id="g76">
        <path
           inkscape:connector-curvature="0"
           id="path78"
           style="fill:#19276a;fill-opacity:1;fill-rule:nonzero;stroke:none"
           d="M 0,0 -0.477,1.231 H -2.45 L -2.942,0 h -1.016 l 2.03,4.787 h 1.069 L 1.167,0 Z M -1.268,3.431 C -1.399,3.785 -1.426,4.01 -1.426,4.01 h -0.018 c 0,0 -0.027,-0.225 -0.172,-0.579 L -2.272,1.745 h 1.639 z" />
      </g>
      <path
         inkscape:connector-curvature="0"
         id="path80"
         style="fill:#19276a;fill-opacity:1;fill-rule:nonzero;stroke:none;stroke-width:0.35277778"
         d="m 110.70258,197.64088 h 0.40252 v 1.68875 h -0.40252 z" />
      <g
         transform="matrix(0.35277777,0,0,-0.35277777,112.58861,199.32951)"
         id="g90">
        <path
           inkscape:connector-curvature="0"
           id="path92"
           style="fill:#19276a;fill-opacity:1;fill-rule:nonzero;stroke:none"
           d="M 0,0 -1.735,2.169 H -1.752 V 0 h -1.12 v 4.586 c 0.387,0.155 0.972,0.276 1.678,0.276 1.524,0 2.261,-0.561 2.261,-1.454 0,-0.727 -0.665,-1.219 -1.637,-1.27 V 2.126 L 1.254,0 Z m -1.194,4.35 c -0.24,0 -0.428,-0.034 -0.558,-0.082 V 2.392 c 0.067,-0.024 0.245,-0.039 0.411,-0.039 0.877,0 1.301,0.371 1.301,1.012 0,0.664 -0.325,0.985 -1.154,0.985" />
      </g>
      <g
         transform="matrix(0.35277777,0,0,-0.35277777,113.83539,198.66636)"
         id="g94">
        <path
           inkscape:connector-curvature="0"
           id="path96"
           style="fill:#19276a;fill-opacity:1;fill-rule:nonzero;stroke:none"
           d="M 0,0 -0.24,0.015 V -1.88 h -1.104 v 4.586 c 0.395,0.161 0.991,0.276 1.698,0.276 1.573,0 2.233,-0.641 2.233,-1.493 C 2.587,0.62 1.825,-0.104 0,0 M 0.329,2.47 C 0.065,2.47 -0.13,2.427 -0.24,2.397 V 0.535 L -0.006,0.523 C 1.1,0.45 1.503,0.837 1.503,1.497 1.503,2.145 1.169,2.47 0.329,2.47" />
      </g>
      <g
         transform="matrix(0.35277777,0,0,-0.35277777,115.84362,199.35417)"
         id="g98">
        <path
           inkscape:connector-curvature="0"
           id="path100"
           style="fill:#19276a;fill-opacity:1;fill-rule:nonzero;stroke:none"
           d="m 0,0 c -1.648,0 -2.306,1.102 -2.306,2.462 0,1.357 0.658,2.47 2.306,2.47 1.649,0 2.297,-1.113 2.297,-2.47 C 2.297,1.102 1.649,0 0,0 M 0,4.347 C -0.942,4.347 -1.154,3.392 -1.154,2.495 -1.154,1.6 -0.968,0.656 0,0.656 0.973,0.656 1.15,1.6 1.15,2.495 1.15,3.392 0.949,4.347 0,4.347" />
      </g>
      <g
         transform="matrix(0.35277777,0,0,-0.35277777,118.06308,199.32951)"
         id="g102">
        <path
           inkscape:connector-curvature="0"
           id="path104"
           style="fill:#19276a;fill-opacity:1;fill-rule:nonzero;stroke:none"
           d="M 0,0 -1.734,2.169 H -1.756 V 0 h -1.113 v 4.586 c 0.382,0.155 0.974,0.276 1.677,0.276 1.524,0 2.263,-0.561 2.263,-1.454 0,-0.727 -0.673,-1.219 -1.643,-1.27 V 2.126 L 1.255,0 Z m -1.192,4.35 c -0.242,0 -0.431,-0.034 -0.564,-0.082 V 2.392 c 0.073,-0.024 0.25,-0.039 0.42,-0.039 0.875,0 1.301,0.371 1.301,1.012 0,0.664 -0.332,0.985 -1.157,0.985" />
      </g>
      <path
         d="m 119.47341,197.84891 v 1.48061 h -0.3997 v -1.48061 h -0.40146 v -0.20814 h 1.2065 v 0.20814 z"
         style="fill:#19276a;fill-opacity:1;fill-rule:nonzero;stroke:none;stroke-width:0.35277778"
         id="path108"
         inkscape:connector-curvature="0" />
      <g
         transform="matrix(0.35277777,0,0,-0.35277777,120.6136,199.35417)"
         id="g118">
        <path
           inkscape:connector-curvature="0"
           id="path120"
           style="fill:#19276a;fill-opacity:1;fill-rule:nonzero;stroke:none"
           d="m 0,0 c -0.727,0 -1.184,0.105 -1.513,0.271 l 0.276,0.619 c 0.213,-0.109 0.561,-0.219 1.024,-0.219 0.606,0 0.983,0.29 0.983,0.74 0,0.357 -0.27,0.579 -0.953,0.804 -1.001,0.325 -1.265,0.84 -1.265,1.31 0,0.758 0.699,1.407 1.833,1.407 0.609,0 1.071,-0.121 1.349,-0.276 L 1.479,4.113 C 1.268,4.216 0.93,4.329 0.537,4.329 -0.026,4.329 -0.347,4.06 -0.347,3.631 -0.347,3.216 0.047,3.022 0.58,2.851 1.784,2.45 1.96,1.922 1.96,1.464 1.96,0.613 1.141,0 0,0" />
      </g>
    </g>
  </g>
</svg>
