<?xml version="1.0" encoding="UTF-8" standalone="no"?>
<svg
   width="102pt"
   height="21.480469pt"
   viewBox="0 0 102 21.480469"
   version="1.1"
   id="svg40"
   sodipodi:docname="yves rocher logo.svg"
   inkscape:version="1.1.1 (3bf5ae0d25, 2021-09-20)"
   xmlns:inkscape="http://www.inkscape.org/namespaces/inkscape"
   xmlns:sodipodi="http://sodipodi.sourceforge.net/DTD/sodipodi-0.dtd"
   xmlns="http://www.w3.org/2000/svg"
   xmlns:svg="http://www.w3.org/2000/svg">
  <sodipodi:namedview
     id="namedview42"
     pagecolor="#ffffff"
     bordercolor="#999999"
     borderopacity="1"
     inkscape:pageshadow="0"
     inkscape:pageopacity="0"
     inkscape:pagecheckerboard="0"
     inkscape:document-units="pt"
     showgrid="false"
     inkscape:zoom="3.436539"
     inkscape:cx="62.41745"
     inkscape:cy="-18.186903"
     inkscape:window-width="1920"
     inkscape:window-height="1001"
     inkscape:window-x="-9"
     inkscape:window-y="-9"
     inkscape:window-maximized="1"
     inkscape:current-layer="surface1"
     fit-margin-top="1"
     fit-margin-right="1"
     fit-margin-bottom="1"
     fit-margin-left="1" />
  <defs
     id="defs5">
    <clipPath
       id="clip1">
      <path
         d="M 0,0 H 20 V 19.480469 H 0 Z m 0,0"
         id="path2" />
    </clipPath>
  </defs>
  <g
     id="surface1"
     transform="translate(1,1)">
    <path
       style="fill:#514d4f;fill-opacity:1;fill-rule:nonzero;stroke:none"
       d="m 79.363281,6.363281 h 1.214844 V 9.253906 H 83.5625 V 6.363281 h 1.359375 v 6.820313 H 83.5625 v -2.742188 h -2.984375 v 2.742188 H 79.363281 V 6.363281"
       id="path7" />
    <path
       style="fill:#514d4f;fill-opacity:1;fill-rule:nonzero;stroke:none"
       d="m 38.039063,6.378906 h 4.921875 v 1.097657 h -3.601563 v 1.894531 h 2.5625 v 1.097656 h -2.5625 v 1.644531 h 3.65625 v 1.070313 H 38.039063 V 6.378906"
       id="path9" />
    <path
       style="fill:#514d4f;fill-opacity:1;fill-rule:nonzero;stroke:none"
       d="m 87.144531,6.378906 h 4.921875 v 1.097657 h -3.601562 v 1.894531 h 2.5625 v 1.097656 h -2.5625 v 1.644531 h 3.65625 v 1.070313 H 87.144531 V 6.378906"
       id="path11" />
    <path
       style="fill:#514d4f;fill-opacity:1;fill-rule:nonzero;stroke:none"
       d="m 30.195313,6.363281 h 1.445312 l 1.695313,5.050782 h 0.09375 L 35.09375,6.363281 h 1.460938 l -2.503907,6.820313 h -1.386718 l -2.46875,-6.820313"
       id="path13" />
    <path
       style="fill:#514d4f;fill-opacity:1;fill-rule:nonzero;stroke:none"
       d="m 23.222656,6.363281 h 1.550782 L 26.464844,9.378906 28.1875,6.363281 h 1.460938 l -2.515625,4.164063 v 2.65625 h -1.332032 v -2.65625 L 23.222656,6.363281"
       id="path15" />
    <path
       style="fill:#514d4f;fill-opacity:1;fill-rule:nonzero;stroke:none"
       d="m 44.316406,11.089844 h 1.441407 c 0.05469,0.367187 0.214843,0.640625 0.476562,0.820312 0.261719,0.175782 0.644531,0.265625 1.140625,0.265625 0.425781,0 0.742188,-0.07422 0.960938,-0.214843 0.214843,-0.140625 0.320312,-0.355469 0.320312,-0.632813 0,-0.410156 -0.617187,-0.746094 -1.855469,-1.015625 l -0.04297,-0.0078 C 46.726561,10.2969 46.675781,10.28907 46.609373,10.27345 45.949219,10.136719 45.472656,9.980469 45.195313,9.8125 44.941406,9.660156 44.75,9.453125 44.621094,9.199219 44.488281,8.941406 44.421875,8.636719 44.421875,8.289063 c 0,-0.65625 0.234375,-1.15625 0.703125,-1.503907 0.46875,-0.347656 1.148438,-0.523437 2.035156,-0.523437 0.828125,0 1.476563,0.183594 1.941407,0.554687 0.46875,0.375 0.714843,0.894532 0.742187,1.570313 H 48.441406 C 48.414063,8.0625 48.28125,7.816406 48.046875,7.644531 47.804688,7.476563 47.46875,7.390625 47.027344,7.390625 c -0.382813,0 -0.675781,0.070313 -0.882813,0.210938 -0.207031,0.140625 -0.3125,0.34375 -0.3125,0.605468 0,0.355469 0.402344,0.621094 1.210938,0.796875 0.21875,0.046875 0.390625,0.085938 0.511719,0.113282 0.515625,0.125 0.882812,0.222656 1.097656,0.292968 0.21875,0.070313 0.40625,0.148438 0.570312,0.234375 0.285157,0.152344 0.503907,0.351563 0.648438,0.601563 0.144531,0.25 0.21875,0.550781 0.21875,0.902344 0,0.699218 -0.25,1.242187 -0.75,1.625 -0.496094,0.386718 -1.195313,0.578125 -2.105469,0.578125 -0.890625,0 -1.589844,-0.195313 -2.097656,-0.585938 -0.507813,-0.394531 -0.78125,-0.953125 -0.820313,-1.675781"
       id="path17" />
    <path
       style="fill:#514d4f;fill-opacity:1;fill-rule:nonzero;stroke:none"
       d="m 56.339844,9.472656 h 1.257812 c 0.695313,0 1.128907,-0.027343 1.304688,-0.085937 0.476562,-0.152344 0.617187,-0.566406 0.617187,-1.023438 0,-0.230468 -0.128906,-0.414062 -0.257812,-0.554687 C 59.132813,7.667969 58.949219,7.574219 58.714844,7.539063 58.597656,7.523438 58.242188,7.519531 57.65625,7.519531 h -1.316406 z m -1.261719,3.710938 V 6.363281 h 2.902344 c 0.765625,0 1.324219,0.0625 1.671875,0.183594 C 60,6.667969 60.28125,6.886719 60.484375,7.199219 c 0.210938,0.316406 0.347656,0.6875 0.363281,1.089844 0.01953,0.441406 -0.226562,1.078125 -0.5,1.425781 -0.25,0.320312 -0.507812,0.46875 -0.878906,0.625 l 1.546875,2.84375 H 59.507813 L 58.117188,10.5 56.339844,10.488281 v 2.695313 h -1.261719"
       id="path19" />
    <path
       style="fill:#514d4f;fill-opacity:1;fill-rule:nonzero;stroke:none"
       d="m 95.324219,9.472656 h 1.257812 c 0.695313,0 1.128907,-0.027343 1.304688,-0.085937 0.476562,-0.152344 0.617187,-0.566406 0.617187,-1.023438 0,-0.230468 -0.132812,-0.414062 -0.257812,-0.554687 C 98.117188,7.667969 97.933594,7.574219 97.699219,7.539063 97.582031,7.523438 97.226563,7.519531 96.640625,7.519531 H 95.324219 Z M 94.0625,13.1875 V 6.363281 h 2.902344 c 0.765625,0 1.324219,0.0625 1.671875,0.183594 0.347656,0.121094 0.628906,0.339844 0.835937,0.652344 0.207032,0.316406 0.34375,0.6875 0.359375,1.089844 0.01953,0.441406 -0.226562,1.078125 -0.5,1.429687 -0.25,0.316406 -0.507812,0.464844 -0.878906,0.621094 L 100,13.1875 H 98.488281 L 97.101563,10.5 95.324219,10.488281 V 13.1875 H 94.0625"
       id="path21" />
    <path
       style="fill:#514d4f;fill-opacity:1;fill-rule:evenodd;stroke:none"
       d="m 65.785156,6.128906 c 2.011719,0 3.640625,1.632813 3.640625,3.644532 0,2.011718 -1.628906,3.644531 -3.640625,3.644531 -2.011718,0 -3.644531,-1.632813 -3.644531,-3.644531 0,-2.011719 1.632813,-3.644532 3.644531,-3.644532 z m 0,1.390625 c 1.246094,0 2.253907,1.007813 2.253907,2.253907 0,1.242187 -1.007813,2.253906 -2.253907,2.253906 -1.246093,0 -2.253906,-1.011719 -2.253906,-2.253906 0,-1.246094 1.007813,-2.253907 2.253906,-2.253907"
       id="path23" />
    <path
       style="fill:#514d4f;fill-opacity:1;fill-rule:evenodd;stroke:none"
       d="m 76.378906,8.527344 h 1.394532 C 77.253906,7.132813 76.070313,6.226563 74.460938,6.164063 72.597656,6.089844 70.90625,7.371094 70.71875,9.613281 c -0.175781,2.128907 1.363281,3.605469 3.414063,3.742188 1.851562,0.121094 3.28125,-0.957031 3.679687,-2.460938 h -1.414062 c -1.414063,2.183594 -4.355469,1.285157 -4.285157,-1.300781 0.04297,-1.386719 1.042969,-2.164062 2.203125,-2.207031 0.824219,-0.03125 1.453125,0.460937 2.0625,1.140625"
       id="path25" />
    <g
       clip-path="url(#clip1)"
       clip-rule="nonzero"
       id="g29">
      <path
         style="fill:#8a9738;fill-opacity:1;fill-rule:evenodd;stroke:none"
         d="m 9.742188,1.359375 c 4.628906,0 8.378906,3.75 8.378906,8.378906 0,4.628907 -3.75,8.378907 -8.378906,8.378907 -4.628907,0 -8.378907,-3.75 -8.378907,-8.378907 0,-4.628906 3.75,-8.378906 8.378907,-8.378906 z m 0,-1.36328125 c 5.382812,0 9.742187,4.35937525 9.742187,9.74218725 0,5.378907 -4.359375,9.742188 -9.742187,9.742188 C 4.363281,19.480469 0,15.117188 0,9.738281 0,4.355469 4.363281,-0.00390625 9.742188,-0.00390625"
         id="path27" />
    </g>
    <path
       style="fill:#8a9738;fill-opacity:1;fill-rule:evenodd;stroke:none"
       d="M 2.8125,8.277344 C 2.355469,12.539063 4.351563,15.355469 7.800781,16.445313 7.738281,15.046875 7.871094,13.464844 7.492188,11.953125 7.113281,10.441406 5.144531,8.230469 2.8125,8.277344"
       id="path31" />
    <path
       style="fill:#8a9738;fill-opacity:1;fill-rule:evenodd;stroke:none"
       d="m 14.855469,14.515625 c -1.574219,1.695313 -3.484375,2.378906 -5.679688,2.210938 L 9.160156,10.484375 c 0.414063,-2.578125 1.75,-3.824219 3.410157,-4.59375 0.328125,2.183594 -0.945313,3.933594 -3.300782,5.34375 1.398438,2.066406 3.1875,3.175781 5.585938,3.28125"
       id="path33" />
    <path
       style="fill:#8a9738;fill-opacity:1;fill-rule:evenodd;stroke:none"
       d="m 13.820313,4.085938 c 0.511718,3.75 -0.390625,6.214843 -2.617188,7.480468 1.203125,1.25 2.777344,1.738282 4.652344,1.589844 1.710937,-3.332031 0.816406,-6.859375 -2.035156,-9.070312"
       id="path35" />
    <path
       style="fill:#8a9738;fill-opacity:1;fill-rule:evenodd;stroke:none"
       d="M 7.9375,9.746094 C 6.609375,7.933594 5.054688,7.125 3.363281,6.917969 5.546875,2.484375 10.386719,1.636719 13.742188,4.019531 10.066406,5.320313 8.292969,6.992188 7.9375,9.746094"
       id="path37" />
  </g>
  <path
     style="opacity:0;fill:#514d4f;fill-opacity:1;fill-rule:evenodd;stroke:#00cb00;stroke-width:0.0125771"
     d="M 39.078704,10.799383 V 7.442901 h 2.430555 2.430555 V 7.944444 8.445988 H 42.126543 40.313271 V 9.410494 10.375 h 1.273148 1.273149 v 0.540124 0.540123 h -1.273149 -1.273148 v 0.848765 0.848766 h 1.813272 1.813271 v 0.501543 0.501543 h -2.430555 -2.430555 z"
     id="path6512" />
</svg>
